<svg width="3305" height="1590" xmlns="http://www.w3.org/2000/svg" xmlns:xlink="http://www.w3.org/1999/xlink" xml:space="preserve" overflow="hidden"><g transform="translate(-561 -456)"><rect x="563.5" y="458.5" width="3300" height="1585" stroke="#FFFFFF" stroke-width="4.58333" stroke-miterlimit="8" fill="#FFFFFF"/><rect x="641" y="614" width="935" height="1299" fill="#3CB4E6" fill-opacity="0.501961"/><text fill="#FFFFFF" font-family="Arial,Arial_MSFontService,sans-serif" font-weight="400" font-size="83" transform="matrix(1 0 0 1 906.873 710)">Operations</text><rect x="771" y="848" width="779" height="104" fill="#49B170"/><text fill="#FFFFFF" font-family="Arial,Arial_MSFontService,sans-serif" font-weight="400" font-size="83" transform="matrix(1 0 0 1 1052.81 930)">Reset</text><rect x="771" y="978" width="779" height="104" fill="#49B170"/><text fill="#FFFFFF" font-family="Arial,Arial_MSFontService,sans-serif" font-weight="400" font-size="83" transform="matrix(1 0 0 1 1020.72 1060)">ReadID</text><rect x="771" y="1108" width="779" height="104" fill="#49B170"/><text fill="#FFFFFF" font-family="Arial,Arial_MSFontService,sans-serif" font-weight="400" font-size="83" transform="matrix(1 0 0 1 1061.97 1190)">Read</text><rect x="771" y="1238" width="779" height="103" fill="#49B170"/><text fill="#FFFFFF" font-family="Arial,Arial_MSFontService,sans-serif" font-weight="400" font-size="83" transform="matrix(1 0 0 1 933.639 1320)">Read Status</text><rect x="771" y="1367" width="779" height="104" fill="#49B170"/><text fill="#FFFFFF" font-family="Arial,Arial_MSFontService,sans-serif" font-weight="400" font-size="83" transform="matrix(1 0 0 1 943.551 1450)">Write config</text><rect x="771" y="1497" width="779" height="104" fill="#49B170"/><text fill="#FFFFFF" font-family="Arial,Arial_MSFontService,sans-serif" font-weight="400" font-size="83" transform="matrix(1 0 0 1 954.264 1580)">MassErase</text><rect x="771" y="1627" width="779" height="104" fill="#49B170"/><text fill="#FFFFFF" font-family="Arial,Arial_MSFontService,sans-serif" font-weight="400" font-size="83" transform="matrix(1 0 0 1 1002.39 1710)">Program</text><rect x="771" y="1757" width="779" height="104" fill="#49B170"/><text fill="#FFFFFF" font-family="Arial,Arial_MSFontService,sans-serif" font-weight="400" font-size="83" transform="matrix(1 0 0 1 922.181 1840)">Sector Erase</text><rect x="667" y="848" width="104" height="104" fill="#E6007E"/><text fill="#FFFFFF" font-family="Arial,Arial_MSFontService,sans-serif" font-weight="400" font-size="83" transform="matrix(1 0 0 1 695.816 930)">1</text><rect x="667" y="978" width="104" height="104" fill="#E6007E"/><text fill="#FFFFFF" font-family="Arial,Arial_MSFontService,sans-serif" font-weight="400" font-size="83" transform="matrix(1 0 0 1 695.816 1060)">2</text><rect x="667" y="1108" width="104" height="104" fill="#E6007E"/><text fill="#FFFFFF" font-family="Arial,Arial_MSFontService,sans-serif" font-weight="400" font-size="83" transform="matrix(1 0 0 1 695.816 1190)">3</text><rect x="667" y="1238" width="104" height="103" fill="#E6007E"/><text fill="#FFFFFF" font-family="Arial,Arial_MSFontService,sans-serif" font-weight="400" font-size="83" transform="matrix(1 0 0 1 695.816 1320)">4</text><rect x="667" y="1367" width="104" height="104" fill="#E6007E"/><text fill="#FFFFFF" font-family="Arial,Arial_MSFontService,sans-serif" font-weight="400" font-size="83" transform="matrix(1 0 0 1 695.816 1450)">5</text><rect x="667" y="1497" width="104" height="104" fill="#E6007E"/><text fill="#FFFFFF" font-family="Arial,Arial_MSFontService,sans-serif" font-weight="400" font-size="83" transform="matrix(1 0 0 1 695.816 1580)">6</text><rect x="667" y="1627" width="104" height="104" fill="#E6007E"/><text fill="#FFFFFF" font-family="Arial,Arial_MSFontService,sans-serif" font-weight="400" font-size="83" transform="matrix(1 0 0 1 695.816 1710)">7</text><rect x="667" y="1757" width="104" height="104" fill="#E6007E"/><text fill="#FFFFFF" font-family="Arial,Arial_MSFontService,sans-serif" font-weight="400" font-size="83" transform="matrix(1 0 0 1 695.816 1840)">8</text><rect x="2460" y="718" width="1299" height="156" fill="#3CB4E6"/><text fill="#FFFFFF" font-family="Arial,Arial_MSFontService,sans-serif" font-weight="400" font-size="83" transform="matrix(1 0 0 1 2667.26 826)">Start with SPI mode first</text><rect x="2460" y="978" width="1299" height="260" fill="#3CB4E6"/><text fill="#FFFFFF" font-family="Arial,Arial_MSFontService,sans-serif" font-weight="400" font-size="83" transform="matrix(1 0 0 1 2529.76 1089)">OSPI and DTR can be added in </text><text fill="#FFFFFF" font-family="Arial,Arial_MSFontService,sans-serif" font-weight="400" font-size="83" transform="matrix(1 0 0 1 2887.26 1188)">second step</text><path d="M2382 705C2382 669.102 2411.1 640 2447 640 2482.9 640 2512 669.102 2512 705 2512 740.898 2482.9 770 2447 770 2411.1 770 2382 740.898 2382 705Z" fill="#3CB4E6" fill-rule="evenodd"/><text fill="#FFFFFF" font-family="Arial,Arial_MSFontService,sans-serif" font-weight="400" font-size="83" transform="matrix(1 0 0 1 2437.71 735)">i</text><path d="M2382 965C2382 929.101 2411.1 900 2447 900 2482.9 900 2512 929.101 2512 965 2512 1000.9 2482.9 1030 2447 1030 2411.1 1030 2382 1000.9 2382 965Z" fill="#3CB4E6" fill-rule="evenodd"/><text fill="#FFFFFF" font-family="Arial,Arial_MSFontService,sans-serif" font-weight="400" font-size="83" transform="matrix(1 0 0 1 2437.71 995)">i</text></g></svg>